<svg width="16" height="18" viewBox="0 0 16 18" fill="none" xmlns="http://www.w3.org/2000/svg">
<path d="M7.58333 8.16667C8.39094 8.16667 9.18041 7.92719 9.85191 7.4785C10.5234 7.02982 11.0468 6.39209 11.3558 5.64596C11.6649 4.89983 11.7458 4.07881 11.5882 3.28672C11.4306 2.49463 11.0417 1.76705 10.4707 1.19598C9.89962 0.624918 9.17204 0.236018 8.37995 0.0784619C7.58786 -0.0790944 6.76684 0.00176924 6.02071 0.310827C5.27458 0.619885 4.63685 1.14326 4.18817 1.81476C3.73948 2.48626 3.5 3.27573 3.5 4.08334C3.5 5.1663 3.93021 6.20491 4.69598 6.97069C5.46175 7.73646 6.50037 8.16667 7.58333 8.16667ZM7.58333 1.16667C8.16019 1.16667 8.7241 1.33773 9.20375 1.65822C9.68339 1.9787 10.0572 2.43422 10.278 2.96718C10.4987 3.50013 10.5565 4.08657 10.444 4.65235C10.3314 5.21813 10.0536 5.73783 9.64573 6.14573C9.23782 6.55363 8.71812 6.83142 8.15235 6.94396C7.58657 7.0565 7.00012 6.99874 6.46717 6.77798C5.93422 6.55723 5.4787 6.18339 5.15821 5.70375C4.83773 5.22411 4.66667 4.6602 4.66667 4.08334C4.66667 3.30979 4.97396 2.56792 5.52094 2.02094C6.06792 1.47396 6.80978 1.16667 7.58333 1.16667Z" fill="#818181"/>
<path d="M14.8575 12.4658C13.922 11.4771 12.7947 10.6895 11.5445 10.1513C10.2943 9.61305 8.94741 9.33545 7.58625 9.33545C6.22509 9.33545 4.87824 9.61305 3.62802 10.1513C2.3778 10.6895 1.25049 11.4771 0.315001 12.4658C0.112184 12.6825 -0.000459032 12.9683 1.40601e-06 13.265V16.3333C1.40601e-06 16.6428 0.122918 16.9395 0.34171 17.1583C0.560503 17.3771 0.857249 17.5 1.16667 17.5H14C14.3094 17.5 14.6062 17.3771 14.825 17.1583C15.0438 16.9395 15.1667 16.6428 15.1667 16.3333V13.265C15.1687 12.969 15.0582 12.6834 14.8575 12.4658ZM14 16.3333H1.16667V13.2592C1.99338 12.3887 2.98859 11.6955 4.09171 11.2218C5.19483 10.7481 6.38281 10.5038 7.58333 10.5038C8.78386 10.5038 9.97184 10.7481 11.075 11.2218C12.1781 11.6955 13.1733 12.3887 14 13.2592V16.3333Z" fill="#818181"/>
</svg>
