<svg width="16" height="18" viewBox="0 0 16 18" fill="none" xmlns="http://www.w3.org/2000/svg">
    <defs>
        <linearGradient id="paint0_linear" x1="2.37774" y1="13.4203" x2="14.314" y2="13.4203" gradientUnits="userSpaceOnUse">
            <stop stop-color="#00AEF4"/>
            <stop offset="1" stop-color="#00CAE9"/>
        </linearGradient>
        <linearGradient id="paint1_linear" x1="4.78028" y1="4.08519" x2="11.2073" y2="4.08519" gradientUnits="userSpaceOnUse">
            <stop stop-color="#00AEF4"/>
            <stop offset="1" stop-color="#00CAE9"/>
        </linearGradient>
    </defs>
    <path d="M15.17 13.2703V16.3303C15.17 16.6403 15.04 16.9403 14.83 17.1603C14.61 17.3803 14.31 17.5003 14 17.5003H1.17C0.86 17.5003 0.56 17.3803 0.34 17.1603C0.12 16.9403 0 16.6403 0 16.3303V13.2703C0 12.9703 0.11 12.6803 0.31 12.4703C1.25 11.4803 2.38 10.6903 3.63 10.1503C4.88 9.61033 6.23 9.34033 7.59 9.34033C8.95 9.34033 10.29 9.61033 11.54 10.1503C12.79 10.6903 13.92 11.4803 14.86 12.4703C15.06 12.6803 15.17 12.9703 15.17 13.2703Z" fill="url(#paint0_linear)"/>
<path d="M11.36 5.65037C11.05 6.39037 10.52 7.03037 9.85 7.48037C9.18 7.93037 8.39 8.17037 7.58 8.17037C6.5 8.17037 5.46 7.74037 4.7 6.97037C3.93 6.21037 3.5 5.17037 3.5 4.08037C3.5 3.28037 3.74 2.49037 4.19 1.81037C4.64 1.14037 5.27 0.620374 6.02 0.310374C6.77 0.000374287 7.59 -0.0796257 8.38 0.0803743C9.17 0.240374 9.9 0.630374 10.47 1.20037C11.04 1.77037 11.43 2.49037 11.59 3.29037C11.75 4.08037 11.66 4.90037 11.36 5.65037Z" fill="url(#paint1_linear)"/>
</svg>
