<svg width="19" height="21" viewBox="0 0 19 21" fill="none" xmlns="http://www.w3.org/2000/svg">
<path d="M18.48 14.8392L16.4329 11.0599V7.125C16.4329 3.19627 13.2367 0 9.30795 0C5.37922 0 2.18295 3.19627 2.18295 7.125V11.0599L0.135827 14.8391C0.0429921 15.0105 -0.00373216 15.203 0.000232892 15.3979C0.00419795 15.5927 0.0587163 15.7832 0.158446 15.9507C0.258175 16.1181 0.399695 16.2568 0.569138 16.3531C0.738581 16.4494 0.930135 16.5 1.12503 16.5H5.20011C5.18874 16.6247 5.183 16.7498 5.1829 16.875C5.1829 17.969 5.6175 19.0182 6.39109 19.7918C7.16468 20.5654 8.21389 21 9.3079 21C10.4019 21 11.4511 20.5654 12.2247 19.7918C12.9983 19.0182 13.4329 17.969 13.4329 16.875C13.4329 16.7484 13.4269 16.6236 13.4157 16.5H17.4908C17.6857 16.5 17.8772 16.4493 18.0466 16.353C18.216 16.2567 18.3575 16.1181 18.4572 15.9506C18.5569 15.7832 18.6114 15.5927 18.6154 15.3979C18.6194 15.2031 18.5727 15.0105 18.4798 14.8392H18.48ZM11.933 16.875C11.9332 17.2357 11.8592 17.5927 11.7154 17.9235C11.5716 18.2543 11.3611 18.552 11.0972 18.7979C10.8332 19.0438 10.5214 19.2326 10.1812 19.3526C9.84105 19.4726 9.47977 19.5212 9.11996 19.4954C8.76015 19.4696 8.40952 19.3698 8.08996 19.2025C7.77041 19.0351 7.48878 18.8036 7.26266 18.5226C7.03654 18.2415 6.87078 17.9168 6.77572 17.5688C6.68067 17.2208 6.65836 16.857 6.71019 16.5H11.9057C11.9237 16.6242 11.9328 16.7495 11.933 16.875ZM1.75461 15L3.68295 11.4401V7.125C3.68295 5.63316 4.27558 4.20242 5.33048 3.14752C6.38537 2.09263 7.81611 1.5 9.30795 1.5C10.7998 1.5 12.2305 2.09263 13.2854 3.14752C14.3403 4.20242 14.9329 5.63316 14.933 7.125V11.4401L16.8612 15H1.75461Z" fill="#818181"/>
</svg>
