<svg width="19" height="21" viewBox="0 0 19 21" fill="none" xmlns="http://www.w3.org/2000/svg">
    <defs>
        <linearGradient id="paint0_linear" x1="2.9185" y1="10.5" x2="17.5693" y2="10.5" gradientUnits="userSpaceOnUse">
            <stop stop-color="#00AEF4"/>
            <stop offset="1" stop-color="#00CAE9"/>
        </linearGradient>
        <linearGradient id="paint1_linear" x1="2.9185" y1="10.5" x2="17.5693" y2="10.5" gradientUnits="userSpaceOnUse">
            <stop stop-color="#00AEF4"/>
            <stop offset="1" stop-color="#00CAE9"/>
        </linearGradient>
    </defs>
<path d="M5.2 17.12C5.26 18.12 5.67 19.07 6.39 19.79C7.16 20.57 8.21 21 9.31 21C10.4 21 11.45 20.57 12.22 19.79C12.94 19.08 13.35 18.13 13.41 17.12H5.2Z" fill="url(#paint0_linear)"/>
<path d="M18.48 14.84L16.43 11.06V7.13C16.43 3.2 13.24 0 9.31 0C5.38 0 2.18 3.2 2.18 7.13V11.06L0.14 14.84C0.04 15.01 0 15.2 0 15.4C0 15.59 0.06 15.78 0.16 15.95C0.26 16.12 0.4 16.26 0.57 16.35C0.74 16.45 0.93 16.5 1.13 16.5H17.49C17.69 16.5 17.88 16.45 18.05 16.35C18.22 16.26 18.36 16.12 18.46 15.95C18.56 15.78 18.61 15.59 18.62 15.4C18.62 15.2 18.57 15.01 18.48 14.84Z" fill="url(#paint1_linear)"/>
</svg>
