<svg width="24" height="25" viewBox="0 0 24 25" fill="none" xmlns="http://www.w3.org/2000/svg">
<path d="M3.62504 13.3473C2.81838 13.7095 2.71961 13.6765 2.20928 13.051C1.66602 12.376 1.12276 11.7175 0.579504 11.0426C0.135021 10.4828 0.151483 10.2688 0.711203 9.82435C2.53852 8.30981 4.38231 6.79528 6.24255 5.2972C6.47302 5.11612 6.62119 4.90211 6.7035 4.62225C7.47723 2.21874 9.55148 0.687744 12.0044 0.687744C14.4573 0.687744 16.5315 2.21874 17.2888 4.63871C17.3876 4.91857 17.5193 5.13258 17.7497 5.31366C19.5935 6.79528 21.4208 8.29335 23.2482 9.77496C23.8573 10.2688 23.8737 10.4664 23.3799 11.0755C22.8531 11.734 22.3098 12.3925 21.783 13.051C21.2727 13.6765 21.1739 13.7095 20.3837 13.3638C20.3672 13.5613 20.3508 13.7424 20.3508 13.9235C20.3508 16.8867 20.3508 19.8499 20.3508 22.7967C20.3508 23.7021 20.0874 23.9655 19.1984 23.9655C14.3914 23.9655 9.58441 23.9655 4.76094 23.9655C3.87197 23.9655 3.60858 23.6856 3.60858 22.7802C3.60858 19.8335 3.60858 16.9032 3.60858 13.9564C3.62504 13.7753 3.62504 13.5942 3.62504 13.3473ZM19.2478 17.5452C19.2478 15.9648 19.2478 14.368 19.2478 12.7876C19.2478 12.4583 19.1655 12.2278 18.9021 12.0303C18.0954 11.4047 17.3053 10.7627 16.5151 10.1042C16.2517 9.8902 16.12 9.90666 15.873 10.1371C13.6177 12.2772 10.3581 12.2937 8.11926 10.1371C7.8394 9.87374 7.69124 9.90666 7.42784 10.1207C6.65411 10.7792 5.84746 11.4212 5.05726 12.0468C4.82679 12.2279 4.74448 12.4254 4.74448 12.7217C4.76094 15.9483 4.76094 19.175 4.74448 22.3851C4.74448 22.7473 4.82679 22.879 5.22189 22.879C6.32486 22.8625 7.4443 22.8461 8.54728 22.879C8.9753 22.8955 9.07408 22.7308 9.07408 22.3357C9.05761 20.459 9.05761 18.5659 9.07408 16.6891C9.09054 15.0594 10.21 13.7424 11.6751 13.5942C13.486 13.4296 14.9347 14.7137 14.9511 16.5739C14.9676 18.4835 14.9841 20.3767 14.9511 22.2863C14.9347 22.7967 15.0993 22.8955 15.5767 22.8955C16.6303 22.8625 17.6839 22.8625 18.7539 22.8955C19.182 22.9119 19.2807 22.7638 19.2807 22.3522C19.2313 20.7554 19.2478 19.142 19.2478 17.5452ZM11.9879 10.6145C14.4079 10.6145 16.4163 8.60613 16.3998 6.20263C16.3834 3.78267 14.3914 1.79072 11.9879 1.77426C9.58441 1.77426 7.576 3.78267 7.576 6.20263C7.55954 8.6226 9.56795 10.6145 11.9879 10.6145ZM13.8152 19.4713C13.8152 18.5165 13.8317 17.5781 13.8152 16.6233C13.7988 15.5368 13.058 14.7466 12.0373 14.7137C11.0331 14.6807 10.1771 15.5039 10.1606 16.6068C10.1441 18.5659 10.1606 20.5084 10.1441 22.4674C10.1441 22.8296 10.2758 22.9119 10.6051 22.9119C11.5105 22.8955 12.3995 22.879 13.3049 22.9119C13.7165 22.9284 13.8152 22.7638 13.7988 22.3851C13.8152 21.3974 13.8152 20.4261 13.8152 19.4713ZM7.08213 8.72137C6.81873 8.21104 6.60472 7.63486 6.53888 7.00929C6.48949 6.64711 6.34133 6.71296 6.14378 6.87759C4.76094 8.01349 3.36164 9.14939 1.96234 10.2853C1.74833 10.4499 1.73187 10.5981 1.91295 10.7956C2.22574 11.1578 2.52206 11.52 2.81838 11.8986C2.99947 12.1291 3.13117 12.162 3.36164 11.9645C4.53047 10.9932 5.6993 10.0548 6.86812 9.08354C6.9669 9.01769 7.11506 8.95184 7.08213 8.72137ZM22.244 10.5158C22.1781 10.4499 22.1287 10.3841 22.0629 10.3347C20.6471 9.18232 19.2313 8.02995 17.8156 6.87759C17.5851 6.68004 17.5028 6.76235 17.4534 7.04221C17.3876 7.55254 17.2559 8.04641 17.0089 8.4909C16.8278 8.80368 16.9266 8.98477 17.19 9.18232C18.0131 9.82435 18.7869 10.4993 19.61 11.1413C20.0545 11.487 20.466 12.162 20.927 12.0632C21.4208 11.9645 21.6842 11.2401 22.0629 10.8121C22.0958 10.7792 22.1287 10.7298 22.1616 10.6804C22.211 10.631 22.2275 10.5816 22.244 10.5158Z" fill="#818181" stroke="#818181" stroke-width="0.3"/>
<path d="M10.885 7.6677C11.1648 7.71708 11.4776 7.81586 11.7904 7.78293C12.1032 7.76647 12.416 7.71708 12.4818 7.33845C12.5477 6.99274 12.2843 6.84458 12.0209 6.71288C11.6752 6.54826 11.2965 6.43302 10.9673 6.21901C10.1442 5.64283 10.1277 4.58924 10.9673 4.01306C11.2142 3.84843 11.4282 3.7332 11.4447 3.38749C11.4611 3.14055 11.6752 3.00885 11.9386 2.99239C12.202 2.97593 12.416 3.09117 12.4818 3.32164C12.5477 3.6015 12.6794 3.7332 12.9757 3.76612C13.2555 3.79905 13.4037 3.99659 13.3379 4.29292C13.272 4.57278 13.0745 4.70448 12.7781 4.63863C12.4983 4.57278 12.2184 4.53985 11.9386 4.58924C11.7245 4.63863 11.5435 4.75386 11.5105 4.98433C11.4776 5.21481 11.6258 5.34651 11.8069 5.44528C12.1032 5.59344 12.416 5.70868 12.7287 5.85684C13.2555 6.10377 13.6506 6.46595 13.6671 7.09151C13.6836 7.71708 13.4037 8.17803 12.844 8.44143C12.6629 8.52374 12.5641 8.62251 12.5641 8.83652C12.5477 9.13284 12.383 9.33039 12.0703 9.36332C11.7739 9.39624 11.527 9.26454 11.4776 8.96822C11.3953 8.57312 11.0661 8.65544 10.8191 8.57312C10.5557 8.49081 10.3746 8.35911 10.424 8.04633C10.424 7.81586 10.5722 7.6677 10.885 7.6677Z" fill="#818181" stroke="#818181" stroke-width="0.3"/>
</svg>
