<svg width="22" height="21" viewBox="0 0 22 21" fill="none" xmlns="http://www.w3.org/2000/svg">
    <defs>
        <linearGradient id="paint0_linear" x1="3.37147" y1="10.4651" x2="20.2963" y2="10.4651" gradientUnits="userSpaceOnUse">
            <stop stop-color="#00AEF4"/>
            <stop offset="1" stop-color="#00CAE9"/>
        </linearGradient>
        <linearGradient id="paint1_linear" x1="3.37147" y1="10.4651" x2="20.2963" y2="10.4651" gradientUnits="userSpaceOnUse">
            <stop stop-color="#00AEF4"/>
            <stop offset="1" stop-color="#00CAE9"/>
        </linearGradient>
        <linearGradient id="paint2_linear" x1="3.37147" y1="10.4651" x2="20.2963" y2="10.4651" gradientUnits="userSpaceOnUse">
            <stop stop-color="#00AEF4"/>
            <stop offset="1" stop-color="#00CAE9"/>
        </linearGradient>
    </defs>

    <path d="M6.86214 16.4414C5.62055 16.4414 4.61774 17.449 4.61774 18.6858C4.61774 19.9274 5.62533 20.9302 6.86214 20.9302C8.10372 20.9302 9.10654 19.9226 9.10654 18.6858C9.10654 17.4443 8.09895 16.4414 6.86214 16.4414Z" fill="url(#paint0_linear)"/>
<path d="M16.8568 20.8685C18.0632 20.5836 18.8102 19.3748 18.5253 18.1684C18.2405 16.9621 17.0317 16.2151 15.8253 16.5C14.619 16.7848 13.872 17.9936 14.1568 19.2C14.4417 20.4063 15.6505 21.1533 16.8568 20.8685Z" fill="url(#paint1_linear)"/>
<path d="M21.4078 3.34273C21.3027 3.22812 21.1595 3.15649 21.0066 3.14216L4.76577 2.91772L4.31689 1.5472C4.00172 0.630343 3.14216 0.00955065 2.17277 0H0.501409C0.22444 0 0 0.22444 0 0.496633C0 0.768827 0.22444 0.993267 0.496633 0.993267H2.168C2.71238 1.00759 3.18992 1.35142 3.3666 1.86715L6.53742 11.4226L6.2891 11.9956C6.01213 12.7119 6.09331 13.5189 6.51354 14.1684C6.92899 14.8035 7.62619 15.1951 8.38547 15.2142H18.0889C18.3659 15.2142 18.5856 14.9897 18.5856 14.7175C18.5856 14.4454 18.3611 14.2209 18.0889 14.2209H8.38069C7.95091 14.2114 7.55934 13.9869 7.3349 13.624C7.11046 13.2658 7.0627 12.8217 7.21074 12.4254L7.4113 11.9765L17.917 10.8782C19.0726 10.7493 20.0182 9.91357 20.2856 8.78182L21.4842 3.76773C21.5367 3.62447 21.5081 3.46211 21.4078 3.34273Z" fill="url(#paint2_linear)"/>
</svg>
