<svg width="22" height="22" viewBox="0 0 22 22" fill="none" xmlns="http://www.w3.org/2000/svg">
<path d="M7.09608 16.984C5.84808 16.984 4.85608 17.992 4.85608 19.224C4.85608 20.472 5.86408 21.464 7.09608 21.464C8.34408 21.464 9.33608 20.456 9.33608 19.224C9.35208 17.976 8.34408 16.984 7.09608 16.984ZM7.09608 20.472C6.40808 20.472 5.84808 19.912 5.84808 19.224C5.84808 18.536 6.40808 17.976 7.09608 17.976C7.78408 17.976 8.34408 18.536 8.34408 19.224C8.34408 19.912 7.80008 20.472 7.09608 20.472Z" fill="#818181" stroke="#818181" stroke-width="0.2"/>
<path d="M16.584 16.984C15.336 16.984 14.344 17.992 14.344 19.224C14.344 20.472 15.352 21.464 16.584 21.464C17.816 21.464 18.824 20.456 18.824 19.224C18.824 17.992 17.832 16.984 16.584 16.984ZM16.584 20.472C15.896 20.472 15.336 19.912 15.336 19.224C15.336 18.536 15.896 17.976 16.584 17.976C17.272 17.976 17.832 18.536 17.832 19.224C17.832 19.912 17.272 20.472 16.584 20.472Z" fill="#818181" stroke="#818181" stroke-width="0.2"/>
<path d="M21.656 3.88002C21.56 3.76802 21.416 3.68802 21.256 3.68802L5.00005 3.44802L4.55205 2.07202C4.23205 1.16002 3.38405 0.53602 2.40805 0.52002H0.744047C0.472047 0.52002 0.248047 0.744019 0.248047 1.01602C0.248047 1.28802 0.472047 1.51202 0.744047 1.51202H2.42405C2.96805 1.52802 3.44805 1.88002 3.62405 2.39202L6.77605 11.96L6.52005 12.536C6.24805 13.256 6.32805 14.056 6.74405 14.712C7.16005 15.352 7.86405 15.736 8.61605 15.768H18.328C18.6 15.768 18.824 15.544 18.824 15.272C18.824 15 18.6 14.776 18.328 14.776H8.63205C8.20005 14.76 7.81605 14.536 7.57605 14.184C7.35205 13.832 7.30405 13.384 7.44805 12.984L7.64005 12.536L18.152 11.432C19.304 11.304 20.248 10.472 20.52 9.33602L21.72 4.31202C21.784 4.15202 21.752 3.99202 21.656 3.88002ZM19.56 9.09602C19.4 9.81602 18.776 10.36 18.04 10.424L7.65605 11.48L5.33605 4.44002L20.632 4.66402L19.56 9.09602Z" fill="#818181" stroke="#818181" stroke-width="0.2"/>
</svg>
