<svg width="21" height="22" viewBox="0 0 21 22" fill="none" xmlns="http://www.w3.org/2000/svg">
    <defs>
        <linearGradient id="paint0_linear" x1="3.46817" y1="11.1667" x2="19.2048" y2="11.1667" gradientUnits="userSpaceOnUse">
            <stop stop-color="#00AEF4"/>
            <stop offset="1" stop-color="#00CAE9"/>
        </linearGradient>
    </defs>

    <path d="M20.3334 9.15553V20.0555C20.3334 20.5666 20.1334 21.0666 19.7667 21.4222C19.4 21.7889 18.9 22 18.3889 22H14.5C13.9889 22 13.4889 21.7889 13.1223 21.4222C12.7556 21.0666 12.5556 20.5666 12.5556 20.0555V13.9444C12.5556 13.8666 12.5223 13.8 12.4778 13.7444C12.4223 13.6889 12.3556 13.6666 12.2778 13.6666H8.38893C8.31115 13.6666 8.24449 13.6889 8.18893 13.7444C8.14449 13.8 8.11115 13.8666 8.11115 13.9444V20.0555C8.11115 20.5666 7.91115 21.0666 7.54449 21.4222C7.17782 21.7889 6.67782 22 6.16671 22H2.27782C2.02226 22 1.76671 21.9444 1.53337 21.8444C1.30004 21.7555 1.08893 21.6111 0.900041 21.4222C0.722263 21.2444 0.577818 21.0333 0.477818 20.8C0.38893 20.5555 0.333374 20.3111 0.333374 20.0555V9.15553C0.333374 8.4222 0.655596 7.7222 1.22226 7.24442L8.72226 0.922202C9.17782 0.544424 9.74449 0.333313 10.3334 0.333313C10.9223 0.333313 11.4889 0.544424 11.9445 0.922202L19.4445 7.24442C20.0112 7.7222 20.3334 8.4222 20.3334 9.15553Z" fill="url(#paint0_linear)"/>
</svg>
