<svg width="20" height="22" viewBox="0 0 20 22" fill="none" xmlns="http://www.w3.org/2000/svg">
<path d="M8.38889 0.588372C8.83974 0.208397 9.41038 0 10 0C10.5896 0 11.1603 0.208397 11.6111 0.588372L19.1111 6.91282C19.6744 7.38837 20 8.08726 20 8.82393V19.7162C20 20.2318 19.7951 20.7264 19.4305 21.0911C19.0658 21.4557 18.5713 21.6606 18.0556 21.6606H14.1667C13.651 21.6606 13.1564 21.4557 12.7917 21.0911C12.4271 20.7264 12.2222 20.2318 12.2222 19.7162V13.605C12.2222 13.5314 12.193 13.4607 12.1409 13.4086C12.0888 13.3565 12.0181 13.3273 11.9444 13.3273H8.05556C7.98188 13.3273 7.91123 13.3565 7.85914 13.4086C7.80704 13.4607 7.77778 13.5314 7.77778 13.605V19.7162C7.77778 20.2318 7.57292 20.7264 7.20826 21.0911C6.84361 21.4557 6.34903 21.6606 5.83333 21.6606H1.94444C1.6891 21.6606 1.43625 21.6103 1.20034 21.5126C0.964427 21.4149 0.750073 21.2716 0.569515 21.0911C0.388956 20.9105 0.24573 20.6962 0.148012 20.4603C0.0502946 20.2243 0 19.9715 0 19.7162V8.82393C0 8.08726 0.325555 7.38837 0.888889 6.91282L8.38889 0.588372ZM10.5367 1.86282C10.3864 1.73635 10.1964 1.667 10 1.667C9.80363 1.667 9.61356 1.73635 9.46333 1.86282L1.96333 8.18615C1.87052 8.26428 1.79589 8.36173 1.74464 8.4717C1.6934 8.58167 1.66679 8.7015 1.66667 8.82282V19.715C1.66667 19.8684 1.79111 19.9928 1.94444 19.9928H5.83333C5.907 19.9928 5.97766 19.9636 6.02975 19.9115C6.08185 19.8594 6.11111 19.7887 6.11111 19.715V13.6039C6.11111 12.5295 6.98222 11.6595 8.05556 11.6595H11.9444C13.0178 11.6595 13.8889 12.5295 13.8889 13.6039V19.715C13.8889 19.8684 14.0133 19.9928 14.1667 19.9928H18.0556C18.1292 19.9928 18.1999 19.9636 18.252 19.9115C18.3041 19.8594 18.3333 19.7887 18.3333 19.715V8.82393C18.3332 8.70261 18.3066 8.58278 18.2554 8.47281C18.2041 8.36284 18.1295 8.26539 18.0367 8.18726L10.5367 1.86282Z" fill="#818181"/>
</svg>
