<svg width="18" height="16" viewBox="0 0 18 16" fill="none" xmlns="http://www.w3.org/2000/svg">
    <defs>
        <linearGradient id="paint0_linear" x1="8.99996" y1="8.31158" x2="8.99996" y2="3.68037" gradientUnits="userSpaceOnUse">
            <stop stop-color="#FF4912"/>
            <stop offset="1" stop-color="#FF7900"/>
        </linearGradient>
    </defs>

    <path d="M15.9085 2.15903C15.0585 1.24057 13.8911 0.736694 12.6243 0.736694C11.6749 0.736694 10.809 1.03328 10.0456 1.62326C9.66077 1.91985 9.31118 2.2834 9.00328 2.70755C8.69539 2.2834 8.3458 1.91985 7.96093 1.62326C7.1912 1.03328 6.32524 0.736694 5.3759 0.736694C4.10904 0.736694 2.94161 1.24057 2.09169 2.15903C1.25139 3.06473 0.789551 4.3021 0.789551 5.64471C0.789551 7.02558 1.30592 8.28847 2.41883 9.62151C3.41307 10.8142 4.84029 12.0261 6.49522 13.4261C7.0597 13.9045 7.70115 14.4466 8.36504 15.027C8.54144 15.1801 8.76595 15.263 9.00008 15.263C9.23421 15.263 9.45871 15.1801 9.63511 15.027C10.299 14.4498 10.9405 13.9045 11.5049 13.4261C13.1599 12.0261 14.5871 10.8142 15.5813 9.62151C16.691 8.28847 17.2106 7.02558 17.2106 5.64471C17.2106 4.3021 16.7488 3.06473 15.9085 2.15903Z" fill="url(#paint0_linear)"/>
</svg>
