<svg width="24" height="24" viewBox="0 0 24 24" fill="none" xmlns="http://www.w3.org/2000/svg">
<path d="M20.0652 12.6832C20.0515 10.7159 21.1124 9.2333 23.2549 8.14007C22.0567 6.69782 20.2438 5.90458 17.8541 5.7517C15.5914 5.60171 13.1159 6.85935 12.2094 6.85935C11.2515 6.85935 9.06094 5.80362 7.33734 5.80362C3.78026 5.84977 0 8.18622 0 12.9399C0 14.3446 0.305579 15.7955 0.916738 17.2897C1.73391 19.2569 4.67983 24.077 7.75279 23.9991C9.35966 23.9673 10.4961 23.0414 12.5871 23.0414C14.6163 23.0414 15.667 23.9991 17.4592 23.9991C20.5597 23.9616 23.224 19.58 24 17.607C19.8421 15.96 20.0652 12.7841 20.0652 12.6832ZM16.4567 3.88543C18.1974 2.14896 18.0395 0.568247 17.988 0C16.4498 0.0749971 14.6712 0.879774 13.6584 1.86916C12.5425 2.93066 11.8867 4.2431 12.0275 5.72285C13.6893 5.82958 15.2069 5.11134 16.4567 3.88543Z" fill="#0A277F"/>
</svg>
