<svg width="25" height="25" viewBox="0 0 25 25" fill="none" xmlns="http://www.w3.org/2000/svg">
<path d="M5.5 12.25H3.5L12.5 3.25L21.5 12.25H19.5" stroke="#030303" stroke-width="2" stroke-linecap="round" stroke-linejoin="round"/>
<path d="M5.5 12.25V19.25C5.5 19.7804 5.71071 20.2891 6.08579 20.6642C6.46086 21.0393 6.96957 21.25 7.5 21.25H17.5C18.0304 21.25 18.5391 21.0393 18.9142 20.6642C19.2893 20.2891 19.5 19.7804 19.5 19.25V12.25" stroke="#030303" stroke-width="2" stroke-linecap="round" stroke-linejoin="round"/>
<path d="M9.5 21.25V15.25C9.5 14.7196 9.71071 14.2109 10.0858 13.8358C10.4609 13.4607 10.9696 13.25 11.5 13.25H13.5C14.0304 13.25 14.5391 13.4607 14.9142 13.8358C15.2893 14.2109 15.5 14.7196 15.5 15.25V21.25" stroke="#030303" stroke-width="2" stroke-linecap="round" stroke-linejoin="round"/>
</svg>
