<svg width="24" height="25" viewBox="0 0 24 25" fill="none" xmlns="http://www.w3.org/2000/svg">
<path d="M8 13.25C10.7614 13.25 13 11.0114 13 8.25C13 5.48858 10.7614 3.25 8 3.25C5.23858 3.25 3 5.48858 3 8.25C3 11.0114 5.23858 13.25 8 13.25Z" stroke="black" stroke-linecap="round" stroke-linejoin="round"/>
<path d="M17 21.25C19.2091 21.25 21 19.4591 21 17.25C21 15.0409 19.2091 13.25 17 13.25C14.7909 13.25 13 15.0409 13 17.25C13 19.4591 14.7909 21.25 17 21.25Z" stroke="black" stroke-linecap="round" stroke-linejoin="round"/>
<path d="M4.5 4.75L11.5 11.75" stroke="black" stroke-linecap="round" stroke-linejoin="round"/>
<path d="M19.5 14.75L14.5 19.75" stroke="black" stroke-linecap="round" stroke-linejoin="round"/>
</svg>
