<svg width="16" height="16" viewBox="0 0 16 16" fill="none" xmlns="http://www.w3.org/2000/svg">
<path d="M8.48 1.35339C7.52631 1.28397 6.56885 1.4207 5.67271 1.7543C4.77657 2.0879 3.96277 2.61053 3.28662 3.28668C2.61047 3.96283 2.08784 4.77663 1.75424 5.67277C1.42064 6.56891 1.28391 7.52637 1.35333 8.48006C1.59333 12.0067 4.67333 14.6667 8.20667 14.6667H10.6667C11.0333 14.6667 11.3333 14.3667 11.3333 14.0001C11.3333 13.6334 11.0333 13.3334 10.6667 13.3334H8.22C5.73333 13.3334 3.45333 11.7201 2.83333 9.31339C1.84 5.44673 5.44 1.84006 9.30667 2.84006C11.72 3.45339 13.3333 5.73339 13.3333 8.22006V8.95339C13.3333 9.48006 12.86 10.0001 12.3333 10.0001C11.8067 10.0001 11.3333 9.48006 11.3333 8.95339V8.12006C11.3333 6.44673 10.1467 4.94006 8.49333 4.70673C7.9673 4.62851 7.4302 4.67708 6.92674 4.8484C6.42328 5.01973 5.96803 5.30884 5.59889 5.69167C5.22976 6.07451 4.95741 6.53998 4.80454 7.04935C4.65166 7.55871 4.62268 8.09723 4.72 8.62006C4.83692 9.25004 5.13308 9.83293 5.57296 10.2988C6.01284 10.7647 6.57777 11.0938 7.2 11.2467C8.42667 11.5334 9.59333 11.1401 10.36 10.3601C10.9533 11.1734 12.14 11.6001 13.2267 11.1667C14.12 10.8134 14.6667 9.90006 14.6667 8.94006V8.21339C14.6667 4.67339 12.0067 1.59339 8.48 1.35339V1.35339ZM8 10.0001C6.89333 10.0001 6 9.10673 6 8.00006C6 6.89339 6.89333 6.00006 8 6.00006C9.10667 6.00006 10 6.89339 10 8.00006C10 9.10673 9.10667 10.0001 8 10.0001Z" fill="#0A277F"/>
</svg>
