<svg width="134" height="44" viewBox="0 0 134 44" fill="none" xmlns="http://www.w3.org/2000/svg">
    <defs>
        <filter id="filter0_d_114_3405" x="0.191162" y="0.448242" width="42.6099" height="42.6101" filterUnits="userSpaceOnUse" color-interpolation-filters="sRGB">
            <feFlood flood-opacity="0" result="BackgroundImageFix" />
            <feColorMatrix in="SourceAlpha" type="matrix" values="0 0 0 0 0 0 0 0 0 0 0 0 0 0 0 0 0 0 127 0" result="hardAlpha" />
            <feOffset />
            <feGaussianBlur stdDeviation="5.5" />
            <feComposite in2="hardAlpha" operator="out" />
            <feColorMatrix type="matrix" values="0 0 0 0 0.0117647 0 0 0 0 0.0784314 0 0 0 0 0.321569 0 0 0 1 0" />
            <feBlend mode="normal" in2="BackgroundImageFix" result="effect1_dropShadow_114_3405" />
            <feBlend mode="normal" in="SourceGraphic" in2="effect1_dropShadow_114_3405" result="shape" />
        </filter>
        <linearGradient id="paint0_linear_114_3405" x1="3" y1="3" x2="40" y2="40" gradientUnits="userSpaceOnUse">
            <stop stop-color="#5FD0A7" />
            <stop offset="1" stop-color="#031452" />
        </linearGradient>
        <linearGradient id="paint1_linear_114_3405" x1="11.4542" y1="0.617726" x2="9.68642" y2="8.04235" gradientUnits="userSpaceOnUse">
            <stop />
            <stop offset="1" stop-opacity="0" />
        </linearGradient>
        <linearGradient id="paint2_linear_114_3405" x1="22" y1="15.0001" x2="14.3772" y2="22.3427" gradientUnits="userSpaceOnUse">
            <stop stop-opacity="0" />
            <stop offset="1" stop-color="#0A277F" />
        </linearGradient>
    </defs>
    <path d="M56.8966 30.75C55.2796 30.75 53.8133 30.3663 52.4977 29.5989C51.1822 28.8315 50.1407 27.79 49.3733 26.4744C48.6059 25.1589 48.2222 23.6652 48.2222 21.9933C48.2222 20.3215 48.5922 18.8415 49.3322 17.5533C50.0996 16.2378 51.1548 15.1963 52.4977 14.4289C53.8407 13.6615 55.3618 13.2778 57.0611 13.2778C58.267 13.2778 59.3496 13.4285 60.3088 13.73C61.2955 14.0315 62.1999 14.5111 63.0222 15.1689C63.4607 15.5252 63.6799 15.9911 63.6799 16.5667C63.6799 17.0326 63.5155 17.43 63.1866 17.7589C62.8577 18.0878 62.4603 18.2522 61.9944 18.2522C61.6929 18.2522 61.3503 18.1289 60.9666 17.8822C60.3637 17.4985 59.747 17.197 59.1166 16.9778C58.4862 16.7311 57.8148 16.6078 57.1022 16.6078C55.5948 16.6078 54.3477 17.1148 53.3611 18.1289C52.4018 19.1156 51.9222 20.4037 51.9222 21.9933C51.9222 23.6378 52.3881 24.9533 53.3199 25.94C54.2518 26.9267 55.444 27.42 56.8966 27.42C58.2396 27.42 59.3359 27.1596 60.1855 26.6389C61.0625 26.0907 61.5011 25.3919 61.5011 24.5422C61.5011 24.323 61.4051 24.2133 61.2133 24.2133H58.4588C57.9381 24.2133 57.5133 24.0626 57.1844 23.7611C56.8829 23.4596 56.7322 23.0622 56.7322 22.5689C56.7322 22.103 56.8829 21.7193 57.1844 21.4178C57.5133 21.1163 57.9381 20.9656 58.4588 20.9656H62.9811C63.7211 20.9656 64.2555 21.1437 64.5844 21.5C64.9133 21.8289 65.0777 22.3907 65.0777 23.1856C65.0777 25.4878 64.324 27.3241 62.8166 28.6944C61.3366 30.0648 59.3633 30.75 56.8966 30.75Z" fill="#030303" />
    <path d="M72.5995 30.75C71.4209 30.75 70.3383 30.4759 69.3517 29.9278C68.365 29.3796 67.5702 28.6259 66.9672 27.6667C66.3917 26.68 66.1039 25.57 66.1039 24.3367C66.1039 23.0759 66.3917 21.9796 66.9672 21.0478C67.5702 20.0885 68.365 19.3485 69.3517 18.8278C70.3383 18.2796 71.4209 18.0056 72.5995 18.0056C73.8054 18.0056 74.888 18.2796 75.8472 18.8278C76.8339 19.3485 77.615 20.0885 78.1906 21.0478C78.7661 21.9796 79.0539 23.0759 79.0539 24.3367C79.0539 25.57 78.7661 26.68 78.1906 27.6667C77.615 28.6259 76.8339 29.3796 75.8472 29.9278C74.888 30.4759 73.8054 30.75 72.5995 30.75ZM72.5995 27.42C73.4491 27.42 74.1343 27.1322 74.655 26.5567C75.2032 25.9537 75.4772 25.2137 75.4772 24.3367C75.4772 23.4322 75.2032 22.7059 74.655 22.1578C74.1343 21.6096 73.4491 21.3356 72.5995 21.3356C71.7772 21.3356 71.0783 21.6096 70.5028 22.1578C69.9546 22.7059 69.6806 23.4322 69.6806 24.3367C69.6806 25.2137 69.9546 25.9537 70.5028 26.5567C71.0783 27.1322 71.7772 27.42 72.5995 27.42Z" fill="#030303" />
    <path d="M82.1154 30.75C81.5672 30.75 81.1013 30.5444 80.7176 30.1333C80.3613 29.7222 80.2243 29.2426 80.3065 28.6944L82.0332 15.4978C82.1154 14.8948 82.3621 14.4152 82.7732 14.0589C83.1843 13.6752 83.6776 13.4833 84.2532 13.4833C85.4317 13.4833 86.1991 13.9904 86.5554 15.0044L89.3509 23.0622C89.488 23.3363 89.625 23.4733 89.7621 23.4733C89.9539 23.4733 90.0909 23.3363 90.1732 23.0622L92.9687 15.0044C93.325 13.9904 94.0787 13.4833 95.2298 13.4833C95.8602 13.4833 96.3672 13.6752 96.7509 14.0589C97.1621 14.4152 97.4087 14.8948 97.4909 15.4978L99.2176 28.6944C99.2998 29.2426 99.1491 29.7222 98.7654 30.1333C98.4091 30.5444 97.9569 30.75 97.4087 30.75C96.9154 30.75 96.4906 30.5993 96.1343 30.2978C95.8054 29.9689 95.6135 29.5578 95.5587 29.0644L94.9421 20.4722C94.9146 20.1433 94.805 19.9789 94.6132 19.9789C94.4213 19.9789 94.2843 20.1159 94.2021 20.39L91.8176 27.0911C91.4339 28.1052 90.7487 28.6122 89.7621 28.6122C89.3784 28.6122 88.9946 28.4752 88.6109 28.2011C88.2546 27.927 87.9669 27.5707 87.7476 27.1322L85.3632 20.4722C85.2809 20.2256 85.1439 20.1022 84.9521 20.1022C84.7876 20.1022 84.678 20.2667 84.6232 20.5956L83.9654 29.0644C83.938 29.5578 83.7461 29.9689 83.3898 30.2978C83.0335 30.5993 82.6087 30.75 82.1154 30.75Z" fill="#030303" />
    <path d="M107.051 30.75C105.187 30.75 103.611 30.2019 102.323 29.1056C101.062 27.9819 100.432 26.447 100.432 24.5011C100.432 22.473 101.048 20.8833 102.282 19.7322C103.542 18.5811 105.118 18.0056 107.009 18.0056C108.352 18.0056 109.462 18.2522 110.339 18.7456C111.216 19.2389 111.874 19.8693 112.313 20.6367C112.751 21.4041 112.971 22.2126 112.971 23.0622C112.971 24.4874 112.34 25.2 111.079 25.2H104.255C104.036 25.2 103.926 25.337 103.926 25.6111C103.926 26.2415 104.269 26.7485 104.954 27.1322C105.666 27.4885 106.461 27.6667 107.338 27.6667C107.886 27.6667 108.435 27.5981 108.983 27.4611C109.531 27.2967 110.011 27.0637 110.422 26.7622C110.696 26.5704 110.984 26.4744 111.285 26.4744C111.696 26.4744 112.039 26.6252 112.313 26.9267C112.614 27.2281 112.765 27.5844 112.765 27.9956C112.765 28.4889 112.505 28.9548 111.984 29.3933C111.491 29.8044 110.764 30.1333 109.805 30.38C108.873 30.6267 107.955 30.75 107.051 30.75ZM109.188 22.8156C109.243 22.8156 109.312 22.8019 109.394 22.7744C109.504 22.747 109.558 22.6511 109.558 22.4867C109.558 22.0756 109.298 21.7056 108.777 21.3767C108.284 21.0204 107.64 20.8422 106.845 20.8422C105.995 20.8422 105.296 21.0341 104.748 21.4178C104.228 21.7741 103.967 22.1441 103.967 22.5278C103.967 22.7196 104.077 22.8156 104.296 22.8156H109.188Z" fill="#030303" />
    <path d="M120.267 30.75C118.431 30.75 116.951 30.1744 115.827 29.0233C114.731 27.8448 114.183 26.2826 114.183 24.3367C114.183 22.3907 114.717 20.8559 115.786 19.7322C116.883 18.5811 118.335 18.0056 120.144 18.0056C121.323 18.0056 122.378 18.4304 123.31 19.28V13.8944C123.31 13.4285 123.474 13.0448 123.803 12.7433C124.132 12.4144 124.557 12.25 125.077 12.25C125.626 12.25 126.064 12.4144 126.393 12.7433C126.749 13.0448 126.927 13.4148 126.927 13.8533V29.1467C126.927 29.6126 126.749 29.9963 126.393 30.2978C126.064 30.5993 125.626 30.75 125.077 30.75C124.2 30.75 123.639 30.3663 123.392 29.5989C122.542 30.3663 121.501 30.75 120.267 30.75ZM120.555 27.42C121.377 27.42 122.035 27.1322 122.529 26.5567C123.049 25.9537 123.31 25.2137 123.31 24.3367C123.31 23.4322 123.049 22.7059 122.529 22.1578C122.035 21.6096 121.377 21.3356 120.555 21.3356C119.706 21.3356 119.02 21.6096 118.5 22.1578C118.006 22.7059 117.76 23.4322 117.76 24.3367C117.76 25.2137 118.006 25.9537 118.5 26.5567C119.02 27.1322 119.706 27.42 120.555 27.42Z" fill="#030303" />
    <path d="M131.089 30.75C130.569 30.75 130.13 30.5993 129.774 30.2978C129.417 29.9963 129.239 29.6126 129.239 29.1467V19.8144C129.239 19.3759 129.404 19.0059 129.733 18.7044C130.089 18.3756 130.541 18.2111 131.089 18.2111C131.637 18.2111 132.062 18.3756 132.364 18.7044C132.693 19.0059 132.857 19.3896 132.857 19.8556V29.1056C132.857 29.5715 132.679 29.9689 132.323 30.2978C131.994 30.5993 131.583 30.75 131.089 30.75ZM131.089 16.1556C130.514 16.1556 130.02 15.9774 129.609 15.6211C129.198 15.2374 128.993 14.7578 128.993 14.1822C128.993 13.6615 129.198 13.2093 129.609 12.8256C130.02 12.4419 130.514 12.25 131.089 12.25C131.637 12.25 132.103 12.4419 132.487 12.8256C132.898 13.2093 133.104 13.6615 133.104 14.1822C133.104 14.7578 132.898 15.2374 132.487 15.6211C132.103 15.9774 131.637 16.1556 131.089 16.1556Z" fill="#030303" />
    <circle cx="21.5" cy="21.5" r="18.5" fill="#0A277F" />
    <circle cx="21.5" cy="21.5" r="18.5" fill="url(#paint0_linear_114_3405)" fill-opacity="0.3" />
    <g filter="url(#filter0_d_114_3405)">
        <rect width="24.6667" height="10.7917" rx="5.39583" transform="matrix(-0.707107 -0.707107 -0.707107 0.707107 34.0361 26.6626)" fill="white" />
        <rect width="24.6667" height="10.7917" rx="5.39583" transform="matrix(-0.707107 -0.707107 -0.707107 0.707107 34.0361 26.6626)" fill="url(#paint1_linear_114_3405)" fill-opacity="0.2" />
        <path d="M25.0971 17.6459L20.4271 13.0185C18.3074 10.9182 14.8888 10.926 12.7788 13.036V13.036C10.6688 15.146 10.661 18.5646 12.7613 20.6843L17.3888 25.3543V25.3543C21.1536 24.5699 24.128 21.6839 25.0255 17.9444L25.0971 17.6459Z" fill="#5FD0A7" />
        <path d="M25.0971 17.6459L20.4271 13.0185C18.3074 10.9182 14.8888 10.926 12.7788 13.036V13.036C10.6688 15.146 10.661 18.5646 12.7613 20.6843L17.3888 25.3543V25.3543C21.1536 24.5699 24.128 21.6839 25.0255 17.9444L25.0971 17.6459Z" fill="url(#paint2_linear_114_3405)" fill-opacity="0.5" />
    </g>
</svg>
