<svg width="43" height="44" viewBox="0 0 43 44" fill="none" xmlns="http://www.w3.org/2000/svg">
    <defs>
        <filter id="filter0_d_114_3407" x="0.191162" y="0.448242" width="42.6099" height="42.6101" filterUnits="userSpaceOnUse" color-interpolation-filters="sRGB">
            <feFlood flood-opacity="0" result="BackgroundImageFix" />
            <feColorMatrix in="SourceAlpha" type="matrix" values="0 0 0 0 0 0 0 0 0 0 0 0 0 0 0 0 0 0 127 0" result="hardAlpha" />
            <feOffset />
            <feGaussianBlur stdDeviation="5.5" />
            <feComposite in2="hardAlpha" operator="out" />
            <feColorMatrix type="matrix" values="0 0 0 0 0.0117647 0 0 0 0 0.0784314 0 0 0 0 0.321569 0 0 0 1 0" />
            <feBlend mode="normal" in2="BackgroundImageFix" result="effect1_dropShadow_114_3407" />
            <feBlend mode="normal" in="SourceGraphic" in2="effect1_dropShadow_114_3407" result="shape" />
        </filter>
        <linearGradient id="paint0_linear_114_3407" x1="3" y1="3" x2="40" y2="40" gradientUnits="userSpaceOnUse">
            <stop stop-color="#5FD0A7" />
            <stop offset="1" stop-color="#031452" />
        </linearGradient>
        <linearGradient id="paint1_linear_114_3407" x1="11.4542" y1="0.617726" x2="9.68642" y2="8.04235" gradientUnits="userSpaceOnUse">
            <stop />
            <stop offset="1" stop-opacity="0" />
        </linearGradient>
        <linearGradient id="paint2_linear_114_3407" x1="22" y1="15.0001" x2="14.3772" y2="22.3427" gradientUnits="userSpaceOnUse">
            <stop stop-opacity="0" />
            <stop offset="1" stop-color="#0A277F" />
        </linearGradient>
    </defs>
    <circle cx="21.5" cy="21.5" r="18.5" fill="#0A277F" />
    <circle cx="21.5" cy="21.5" r="18.5" fill="url(#paint0_linear_114_3407)" fill-opacity="0.3" />
    <g filter="url(#filter0_d_114_3407)">
        <rect width="24.6667" height="10.7917" rx="5.39583" transform="matrix(-0.707107 -0.707107 -0.707107 0.707107 34.0361 26.6626)" fill="white" />
        <rect width="24.6667" height="10.7917" rx="5.39583" transform="matrix(-0.707107 -0.707107 -0.707107 0.707107 34.0361 26.6626)" fill="url(#paint1_linear_114_3407)" fill-opacity="0.2" />
        <path d="M25.0971 17.6459L20.4271 13.0185C18.3074 10.9182 14.8888 10.926 12.7788 13.036C10.6688 15.146 10.661 18.5646 12.7613 20.6843L17.3888 25.3543C21.1536 24.5699 24.128 21.6839 25.0255 17.9444L25.0971 17.6459Z" fill="#5FD0A7" />
        <path d="M25.0971 17.6459L20.4271 13.0185C18.3074 10.9182 14.8888 10.926 12.7788 13.036C10.6688 15.146 10.661 18.5646 12.7613 20.6843L17.3888 25.3543C21.1536 24.5699 24.128 21.6839 25.0255 17.9444L25.0971 17.6459Z" fill="url(#paint2_linear_114_3407)" fill-opacity="0.5" />
    </g>
</svg>
