<svg width="16" height="16" viewBox="0 0 16 16" fill="none" xmlns="http://www.w3.org/2000/svg">
<path d="M4.83255 8.15988L1.76018 4.97785C0.550654 6.34346 0.0923061 7.71155 0.0843487 7.73957L0 8L0.083553 8.26043C0.101059 8.31565 1.92649 13.769 8.0004 13.769C8.73964 13.769 9.41284 13.685 10.0311 13.544L7.84602 11.2809C7.05926 11.241 6.31498 10.8993 5.75798 10.3225C5.20099 9.74558 4.87111 8.97473 4.83255 8.15988ZM8.0004 2.23097C6.52429 2.23097 5.31477 2.56392 4.30656 3.05347L1.35833 0L0.233153 1.16534L14.5565 16L15.6817 14.8347L13.0573 12.1166C15.1565 10.5071 15.9053 8.29504 15.9164 8.26043L16 8L15.9164 7.73957C15.8989 7.68435 14.0743 2.23097 8.0004 2.23097ZM9.51708 8.44998C9.66589 7.89204 9.53936 7.26404 9.12558 6.83466C8.71179 6.40527 8.10464 6.27506 7.56592 6.42917L6.36594 5.18636C6.85768 4.87317 7.42312 4.70609 8.0004 4.70341C9.75581 4.70341 11.1834 6.18193 11.1834 8C11.181 8.59777 11.0194 9.18326 10.7163 9.69197L9.51708 8.44998Z" fill="#0A277F"/>
</svg>
